<svg width="38" height="23" viewBox="0 0 38 23" fill="none" xmlns="http://www.w3.org/2000/svg">
<path d="M20.25 11.5C20.25 17.3586 15.7641 22.125 10.25 22.125C4.73594 22.125 0.25 17.3586 0.25 11.5C0.25 5.64138 4.73594 0.875 10.25 0.875C15.7641 0.875 20.25 5.64139 20.25 11.5ZM27.75 1.5C26.8621 1.5 25.1876 1.93137 23.9494 4.82047C23.1759 6.62512 22.75 8.99741 22.75 11.5C22.75 14.0026 23.1759 16.3749 23.9494 18.1795C25.1876 21.0686 26.8621 21.5 27.75 21.5C28.6379 21.5 30.3124 21.0686 31.5506 18.1795C32.3241 16.3749 32.75 14.0026 32.75 11.5C32.75 8.9974 32.3241 6.62512 31.5506 4.82047C30.3124 1.93137 28.6379 1.5 27.75 1.5ZM36.5 1.5C36.1685 1.50002 35.8506 1.63172 35.6161 1.86613C35.3817 2.10055 35.25 2.41848 35.25 2.75V20.25C35.25 20.5815 35.3817 20.8995 35.6161 21.1339C35.8505 21.3683 36.1685 21.5 36.5 21.5C36.8315 21.5 37.1495 21.3683 37.3839 21.1339C37.6183 20.8995 37.75 20.5815 37.75 20.25V2.75C37.75 2.41848 37.6183 2.10055 37.3839 1.86613C37.1494 1.63172 36.8315 1.50002 36.5 1.5V1.5Z" fill="white"/>
</svg>
