<svg width="56" height="56" viewBox="0 0 56 56" fill="none" xmlns="http://www.w3.org/2000/svg">
<path d="M27.1866 36.1784L27.1439 36.1379C28.3483 36.2591 29.5647 36.1113 30.7052 35.705C31.8455 35.2986 32.8814 34.6441 33.7377 33.7884C34.5939 32.9327 35.2495 31.8973 35.6565 30.7572C36.0638 29.6171 36.2125 28.401 36.0921 27.1964L36.1349 27.2369C36.0152 25.8196 36.2064 24.3935 36.6947 23.0577C37.1832 21.7221 37.9574 20.5091 38.9629 19.5034C39.9687 18.4979 41.1816 17.7236 42.5172 17.2354C43.8531 16.7468 45.2791 16.5557 46.6964 16.6754L46.6536 16.6349C48.349 16.7942 50.052 16.4264 51.5307 15.5821C53.0097 14.7378 54.1918 13.4578 54.9163 11.9168C55.6408 10.3759 55.8723 8.64896 55.5794 6.97157C55.2864 5.29417 54.4832 3.74801 53.279 2.54395C52.075 1.33991 50.5288 0.536566 48.8514 0.243571C47.1741 -0.049446 45.4472 0.182102 43.9062 0.906647C42.3651 1.63117 41.0853 2.81343 40.2409 4.29215C39.3965 5.77085 39.0288 7.47404 39.1881 9.16937L39.1476 9.12662C39.2676 10.5439 39.0768 11.9702 38.5885 13.3061C38.1003 14.642 37.326 15.8552 36.3205 16.861C35.3148 17.8665 34.1016 18.6407 32.7657 19.129C31.4297 19.6172 30.0034 19.808 28.5861 19.6881L28.6266 19.7309C27.4222 19.6096 26.2056 19.7574 25.0653 20.1638C23.925 20.5699 22.8891 21.2246 22.0328 22.0803C21.1764 22.936 20.521 23.9714 20.1138 25.1115C19.7067 26.2516 19.558 27.4677 19.6784 28.6724L19.6379 28.6319C19.7571 30.0489 19.5657 31.475 19.0772 32.8106C18.5885 34.1459 17.8145 35.3589 16.809 36.3644C15.8034 37.37 14.5905 38.144 13.255 38.6327C11.9195 39.1211 10.4935 39.3126 9.0764 39.1934L9.11689 39.2339C7.42156 39.0746 5.71838 39.4422 4.23966 40.2866C2.76096 41.1311 1.5787 42.4109 0.854174 43.9519C0.129629 45.4929 -0.10194 47.2198 0.191077 48.8972C0.484095 50.5745 1.28743 52.1207 2.49148 53.3247C3.69554 54.5289 5.2417 55.3322 6.9191 55.6251C8.59649 55.9181 10.3234 55.6865 11.8644 54.962C13.4053 54.2375 14.6853 53.0554 15.5296 51.5767C16.374 50.0978 16.7417 48.3947 16.5824 46.6994L16.6251 46.7399C16.5054 45.3226 16.6967 43.8965 17.1852 42.5607C17.6734 41.2251 18.4476 40.0121 19.4532 39.0064C20.4589 38.0009 21.6719 37.2266 23.0075 36.7384C24.3433 36.2499 25.7694 36.0587 27.1866 36.1784Z" fill="white"/>
</svg>
