<svg width="35" height="35" viewBox="0 0 35 35" fill="none" xmlns="http://www.w3.org/2000/svg">
<path d="M17.3906 0.833008C14.0942 0.833008 10.8719 1.81049 8.13105 3.64185C5.39023 5.4732 3.25402 8.07618 1.99256 11.1216C0.731098 14.1671 0.401043 17.5182 1.04413 20.7512C1.68722 23.9842 3.27456 26.9539 5.60544 29.2848C7.93631 31.6157 10.906 33.203 14.139 33.8461C17.3721 34.4892 20.7232 34.1591 23.7686 32.8977C26.814 31.6362 29.417 29.5 31.2484 26.7592C33.0797 24.0184 34.0572 20.796 34.0572 17.4997C34.0574 15.3109 33.6264 13.1436 32.7889 11.1214C31.9514 9.09923 30.7237 7.26184 29.1761 5.71416C27.6284 4.16648 25.791 2.93883 23.7688 2.10131C21.7466 1.2638 19.5793 0.832826 17.3906 0.833008V0.833008ZM22.6897 26.0871C22.6273 26.2427 22.5324 26.3831 22.4113 26.499C22.2903 26.6148 22.1458 26.7035 21.9877 26.759C21.8295 26.8144 21.6613 26.8355 21.4944 26.8206C21.3275 26.8058 21.1656 26.7554 21.0197 26.673L16.4953 23.1573L13.5914 25.8363C13.524 25.8861 13.4452 25.9182 13.3622 25.9295C13.2792 25.9408 13.1947 25.9311 13.1164 25.9012L13.6731 20.9205L13.6909 20.9346L13.7023 20.8363C13.7023 20.8363 21.844 13.4238 22.1756 13.1079C22.5114 12.7929 22.4006 12.7246 22.4006 12.7246C22.4197 12.3404 21.7981 12.7246 21.7981 12.7246L11.0106 19.6647L6.51807 18.1347C6.51807 18.1347 5.82807 17.8872 5.76307 17.343C5.69473 16.803 6.54055 16.5097 6.54055 16.5097L24.4022 9.41382C24.4022 9.41382 25.8705 8.75963 25.8705 9.84301L22.6897 26.0871Z" fill="white"/>
</svg>
