<svg width="38" height="31" viewBox="0 0 38 31" fill="none" xmlns="http://www.w3.org/2000/svg">
<path d="M37.3685 3.94863C36.0017 4.55583 34.5333 4.96423 32.9921 5.14863C34.5661 4.20583 35.7729 2.71343 36.3413 0.933835C34.8701 1.80663 33.2393 2.44063 31.5021 2.78343C30.1125 1.30223 28.1329 0.376635 25.9417 0.376635C21.0985 0.311835 17.3749 5.04343 18.5209 9.73064C12.1893 9.41344 6.57606 6.37984 2.81686 1.76903C0.765256 5.11464 1.93006 9.89904 5.17526 11.9414C3.92686 11.9014 2.75126 11.5586 1.72446 10.9886C1.67686 14.7106 4.31726 17.853 7.83606 18.5542C6.75486 18.8558 5.50926 18.903 4.39526 18.6854C5.36526 21.7118 8.17886 23.9158 11.5125 23.977C8.49846 26.3854 4.27886 27.641 0.232056 27.1322C16.5049 37.147 34.4941 24.0262 33.5653 7.89183C35.0545 6.81663 36.3473 5.47543 37.3685 3.94863Z" fill="white"/>
</svg>
