<svg width="56" height="32" viewBox="0 0 56 32" fill="none" xmlns="http://www.w3.org/2000/svg">
<rect width="56" height="32" rx="16" fill="#051724"/>
<path d="M14 21.8337C17.2216 21.8337 19.8333 19.222 19.8333 16.0003C19.8333 12.7787 17.2216 10.167 14 10.167C10.7783 10.167 8.16663 12.7787 8.16663 16.0003C8.16663 19.222 10.7783 21.8337 14 21.8337Z" fill="#FFF194"/>
<path d="M14 25.133C13.5417 25.133 13.1667 24.7913 13.1667 24.333V24.2663C13.1667 23.808 13.5417 23.433 14 23.433C14.4584 23.433 14.8334 23.808 14.8334 24.2663C14.8334 24.7247 14.4584 25.133 14 25.133ZM19.95 22.783C19.7334 22.783 19.525 22.6997 19.3584 22.5413L19.25 22.433C18.925 22.108 18.925 21.583 19.25 21.258C19.575 20.933 20.1 20.933 20.425 21.258L20.5334 21.3663C20.8584 21.6913 20.8584 22.2163 20.5334 22.5413C20.375 22.6997 20.1667 22.783 19.95 22.783ZM8.05004 22.783C7.83337 22.783 7.62504 22.6997 7.45837 22.5413C7.13337 22.2163 7.13337 21.6913 7.45837 21.3663L7.56671 21.258C7.89171 20.933 8.41671 20.933 8.74171 21.258C9.06671 21.583 9.06671 22.108 8.74171 22.433L8.63337 22.5413C8.47504 22.6997 8.25837 22.783 8.05004 22.783ZM22.3334 16.833H22.2667C21.8084 16.833 21.4334 16.458 21.4334 15.9997C21.4334 15.5413 21.8084 15.1663 22.2667 15.1663C22.725 15.1663 23.1334 15.5413 23.1334 15.9997C23.1334 16.458 22.7917 16.833 22.3334 16.833ZM5.73337 16.833H5.66671C5.20837 16.833 4.83337 16.458 4.83337 15.9997C4.83337 15.5413 5.20837 15.1663 5.66671 15.1663C6.12504 15.1663 6.53337 15.5413 6.53337 15.9997C6.53337 16.458 6.19171 16.833 5.73337 16.833ZM19.8417 10.9913C19.625 10.9913 19.4167 10.908 19.25 10.7497C18.925 10.4247 18.925 9.89967 19.25 9.57467L19.3584 9.46634C19.6834 9.14134 20.2084 9.14134 20.5334 9.46634C20.8584 9.79134 20.8584 10.3163 20.5334 10.6413L20.425 10.7497C20.2667 10.908 20.0584 10.9913 19.8417 10.9913ZM8.15837 10.9913C7.94171 10.9913 7.73337 10.908 7.56671 10.7497L7.45837 10.633C7.13337 10.308 7.13337 9.78301 7.45837 9.45801C7.78337 9.13301 8.30837 9.13301 8.63337 9.45801L8.74171 9.56634C9.06671 9.89134 9.06671 10.4163 8.74171 10.7413C8.58337 10.908 8.36671 10.9913 8.15837 10.9913ZM14 8.53301C13.5417 8.53301 13.1667 8.19134 13.1667 7.73301V7.66634C13.1667 7.20801 13.5417 6.83301 14 6.83301C14.4584 6.83301 14.8334 7.20801 14.8334 7.66634C14.8334 8.12467 14.4584 8.53301 14 8.53301Z" fill="#FFF194"/>
<rect x="28" y="4" width="24" height="24" rx="12" fill="white"/>
</svg>
